Coordinates
version=1
nRows=10
nColumns=40
inDegrees=yes

Units are S.I. units (second, meters, Newtons, ...)
Angles are in degrees.

endheader
time	pelvis_tilt	pelvis_list	pelvis_rotation	pelvis_tx	pelvis_ty	pelvis_tz	hip_flexion_r	hip_adduction_r	hip_rotation_r	knee_angle_r	knee_angle_r_beta	ankle_angle_r	subtalar_angle_r	mtp_angle_r	hip_flexion_l	hip_adduction_l	hip_rotation_l	knee_angle_l	knee_angle_l_beta	ankle_angle_l	subtalar_angle_l	mtp_angle_l	lumbar_extension	lumbar_bending	lumbar_rotation	arm_flex_r	arm_add_r	arm_rot_r	elbow_flex_r	pro_sup_r	wrist_flex_r	wrist_dev_r	arm_flex_l	arm_add_l	arm_rot_l	elbow_flex_l	pro_sup_l	wrist_flex_l	wrist_dev_l
     38.02500000	     -2.42690841	     -5.32776164	      5.35586296	      1.12096737	      0.92278899	      0.44049262	     -0.85594719	      0.26700392	    -15.50700474	     18.78934613	     18.78934613	     17.77714870	      1.87358223	     -4.08099462	     24.65327105	     -7.78712718	     -1.85641987	     29.64903163	     29.64903163	     10.62590329	    -15.20341419	      4.75277615	     -8.28605249	      5.90860344	      3.28329870	     25.52615833	    -17.53225434	    -11.46428518	     92.66478179	     45.40519356	      0.00000000	      0.00000000	     -6.51473176	     -8.41042085	      3.75837938	     28.70905987	     44.39208592	      0.00000000	      0.00000000
     38.03828571	     -2.42266689	     -5.23139068	      5.15112927	      1.12102843	      0.92354023	      0.43702576	     -0.31414702	     -0.35602592	    -15.22463920	     20.50737062	     20.50737062	     17.54291491	      1.41983803	     -4.51304118	     24.07819519	     -7.54368039	     -2.12748901	     29.49757950	     29.49757950	     10.99916233	    -15.19310814	      4.76393036	     -8.24033445	      5.86678303	      3.35126878	     23.86328285	    -17.53563121	    -11.44731103	     90.63415983	     45.46008428	      0.00000000	      0.00000000	     -5.37206095	     -8.58250404	      3.54959054	     28.84975050	     44.46313290	      0.00000000	      0.00000000
     38.05157143	     -2.39778979	     -5.12311281	      4.91969090	      1.12099855	      0.92440094	      0.43361469	      0.37460609	     -1.02712850	    -14.87818566	     22.49820262	     22.49820262	     17.16988673	      0.84060520	     -5.15680095	     23.42666724	     -7.29862611	     -2.46738883	     29.24633932	     29.24633932	     11.31784961	    -15.17478634	      4.76549552	     -8.23857840	      5.82687475	      3.40408231	     22.18902411	    -17.47378188	    -11.31437726	     88.54070902	     45.51308949	      0.00000000	      0.00000000	     -4.21196331	     -8.79233999	      3.34368301	     29.11264455	     44.52998282	      0.00000000	      0.00000000
     38.06485714	     -2.42237459	     -5.04297321	      4.64834117	      1.12074468	      0.92521453	      0.43031101	      1.35600368	     -1.71090932	    -14.42941652	     24.85527866	     24.85527866	     16.57782275	      0.07698519	     -6.07619979	     22.80835350	     -7.07330433	     -2.77834511	     28.92618510	     28.92618510	     11.57947286	    -15.17564622	      4.76653856	     -8.22807493	      5.80823562	      3.50100707	     20.60024259	    -17.43948068	    -11.14650914	     86.16647320	     45.57387345	      0.00000000	      0.00000000	     -2.99099556	     -9.01224177	      3.11599741	     29.48052075	     44.60034310	      0.00000000	      0.00000000
     38.07814286	     -2.48937312	     -5.07011018	      4.40534843	      1.12023445	      0.92594648	      0.42716742	      2.54329504	     -2.24177289	    -13.80265128	     27.35335855	     27.35335855	     15.42906484	     -1.17055303	     -7.95166447	     22.30849557	     -6.92798113	     -2.89894127	     28.65478277	     28.65478277	     11.75157152	    -15.28243486	      4.76533732	     -8.14744860	      5.87161835	      3.49475378	     19.35795263	    -17.20785371	    -10.89944278	     82.60462719	     45.66675568	      0.00000000	      0.00000000	     -1.76196108	     -9.19620420	      2.70896353	     29.87131221	     44.71379201	      0.00000000	      0.00000000
     38.09142857	     -2.43960305	     -4.92574225	      4.06972835	      1.11975470	      0.92680376	      0.42411601	      3.85206222	     -3.04038088	    -13.21590486	     30.33973011	     30.33973011	     14.42987802	     -2.18135311	     -9.08594088	     21.54874147	     -6.68826128	     -3.42622369	     28.21914987	     28.21914987	     11.99987614	    -15.20926378	      4.72370458	     -8.27643370	      5.80942472	      3.46283473	     17.89575866	    -17.05091720	    -10.56713726	     80.54855136	     45.71204987	      0.00000000	      0.00000000	     -0.55329710	     -9.56920013	      2.45505766	     30.46976412	     44.78243476	      0.00000000	      0.00000000
     38.10471429	     -2.48218901	     -4.96377634	      3.77236948	      1.11896782	      0.92741457	      0.42132936	      5.28718369	     -3.49760038	    -12.37684457	     33.03214462	     33.03214462	     11.59794203	     -4.62383981	    -14.36115201	     21.01737322	     -6.60922371	     -3.69031468	     27.89092775	     27.89092775	     12.04642240	    -15.28837879	      4.40932545	     -8.19712160	      5.87096418	      2.59788281	     17.94050705	    -16.31241285	     -9.44313171	     75.00021068	     45.81657781	      0.00000000	      0.00000000	      0.01857874	     -9.97608189	      1.19438450	     31.68819162	     45.06201688	      0.00000000	      0.00000000
     38.11800000	     -2.47597939	     -4.88530290	      3.44266466	      1.11805687	      0.92796439	      0.41866296	      7.02703067	     -4.18574813	    -11.64190438	     36.52040701	     36.52040701	     10.26940927	     -5.86907071	    -14.93195204	     20.40813366	     -6.44643591	     -4.11691007	     27.54405624	     27.54405624	     12.24487264	    -15.17155185	      4.32613719	     -8.35836434	      5.84339681	      2.87441864	     16.16393202	    -16.37050555	     -9.10290878	     73.10462514	     45.85392718	      0.00000000	      0.00000000	      1.44160165	    -10.36159462	      0.91131301	     32.56738902	     45.13470581	      0.00000000	      0.00000000
     38.13128571	     -2.45842889	     -4.75663035	      3.09312055	      1.11693362	      0.92837084	      0.41619284	      8.89743296	     -4.87771534	    -10.81818804	     40.12989158	     40.12989158	      8.71365773	     -7.22189252	    -15.33248707	     19.86477405	     -6.26270732	     -4.61024537	     27.31763622	     27.31763622	     12.41323880	    -15.03617105	      4.19171362	     -8.58714216	      5.74699688	      3.05461518	     14.55610767	    -16.27284473	     -8.81244052	     70.96672301	     45.90280565	      0.00000000	      0.00000000	      2.91356040	    -10.82219367	      0.69024340	     33.44282530	     45.19518146	      0.00000000	      0.00000000
     38.14457143	     -2.46209184	     -4.71048635	      2.75809143	      1.11571830	      0.92866127	      0.41396781	     10.83957775	     -5.38809597	     -9.94612725	     43.67296507	     43.67296507	      6.96560743	     -8.63833502	    -15.49768606	     19.36553283	     -6.17519844	     -5.06252031	     27.09380296	     27.09380296	     12.62125069	    -14.87885221	      3.99252660	     -8.74973779	      5.71657452	      3.22810816	     13.01556679	    -16.13744907	     -8.53899853	     68.49023393	     45.96382820	      0.00000000	      0.00000000	      4.38378173	    -11.29895852	      0.49372664	     34.38176197	     45.25108869	      0.00000000	      0.00000000
